<svg width="245" height="55" viewBox="0 0 245 55" fill="none" xmlns="http://www.w3.org/2000/svg" role="img" aria-label="아시아경제"><title>아시아경제</title>
<g clip-path="url(#clip0_1253_257)">
<path d="M162.716 43.073C162.716 49.622 157.407 54.9301 150.858 54.9301C144.309 54.9301 139.001 49.622 139.001 43.073C139.001 36.524 144.309 31.2158 150.858 31.2158C157.407 31.2158 162.716 36.524 162.716 43.073V43.073ZM150.858 37.147C147.584 37.147 144.932 39.7985 144.932 43.073C144.932 46.3475 147.584 48.999 150.858 48.999C154.133 48.999 156.784 46.3475 156.784 43.073C156.784 39.7985 154.133 37.147 150.858 37.147Z" fill="#231F20"/>
<path d="M62.9928 28.5334C60.4751 25.8922 59.2189 22.1183 59.2189 17.2117V11.8005H52.6802C52.3404 11.8005 52.0109 11.8005 51.702 11.8005C52.3044 12.4029 52.6802 13.654 52.6802 14.5756C52.6802 14.5808 52.6802 14.5859 52.6802 14.5962V17.2117C52.6802 22.1234 51.4548 25.9797 48.999 28.7857C46.5431 31.5968 44.1387 33.6305 41.7704 34.8867L46.3269 38.7996C47.892 37.9089 49.6734 36.5188 51.6659 34.6345C53.6584 32.7501 55.1155 30.7112 56.0371 28.5334C57.1749 30.7112 58.7246 32.6677 60.6862 34.4028C62.653 36.1378 64.4756 37.4662 66.1643 38.3826L69.8455 34.1453C67.7913 33.0435 65.5001 31.1695 62.9876 28.5282L62.9928 28.5334ZM77.8619 47.4338V9.27773H75.787C75.787 9.27773 72.7957 9.27773 70.7568 9.27773C71.3592 9.88011 71.7351 11.1364 71.7351 12.0528C71.7351 12.0631 71.7351 12.0683 71.7351 12.0786V49.0041H76.3379C77.1771 48.9938 77.8567 48.3091 77.8567 47.4698C77.8567 47.4595 77.8567 47.4493 77.8567 47.439L77.8619 47.4338Z" fill="#231F20"/>
<path d="M118.314 22.3191V9.27773H116.244C116.244 9.27773 113.253 9.27773 111.214 9.27773C111.812 9.87496 112.177 11.1003 112.187 12.0168V49.0041H116.785C117.624 48.999 118.309 48.3142 118.309 47.4698C118.309 47.4698 118.309 47.4595 118.309 47.4544V27.9207H123.88V22.3191H118.309H118.314ZM97.0197 12.2742C90.1258 12.2742 84.5344 17.8655 84.5344 24.7595C84.5344 31.6534 90.1258 37.2448 97.0197 37.2448C103.914 37.2448 109.505 31.6534 109.505 24.7595C109.505 17.8655 103.914 12.2742 97.0197 12.2742V12.2742ZM97.0197 31.3033C93.4054 31.3033 90.4707 28.3738 90.4707 24.7595C90.4707 21.1452 93.4003 18.2157 97.0197 18.2157C100.639 18.2157 103.569 21.1452 103.569 24.7595C103.569 28.3738 100.639 31.3033 97.0197 31.3033Z" fill="#231F20"/>
<path d="M12.4853 12.2742C5.59135 12.2742 0 17.8604 0 24.7543C0 31.6483 5.59135 37.2396 12.4853 37.2396C19.3792 37.2396 24.9654 31.6483 24.9654 24.7543C24.9654 17.8604 19.3741 12.269 12.4853 12.269V12.2742ZM12.4853 31.3033C8.87099 31.3033 5.9363 28.3738 5.9363 24.7595C5.9363 21.1452 8.86584 18.2157 12.4853 18.2157C16.1047 18.2157 19.0343 21.1452 19.0343 24.7595C19.0343 28.3738 16.1047 31.3033 12.4853 31.3033ZM33.7798 22.3191V9.27773H31.7049C31.7049 9.27773 28.7136 9.27773 26.6748 9.27773C27.2771 9.88011 27.653 11.1364 27.653 12.0528C27.653 12.0683 27.653 12.0786 27.653 12.094V49.0041H32.2507C33.0899 48.999 33.7746 48.3142 33.7746 47.4698C33.7746 47.4698 33.7746 47.4595 33.7746 47.4544V27.9207H39.3454V22.3191H33.7746H33.7798Z" fill="#231F20"/>
<path d="M163.575 9.27773H161.459C161.459 9.27773 158.468 9.27773 156.429 9.27773C157.026 9.87496 157.397 11.1106 157.402 12.0322V14.3851H150.73V19.6881H157.402V22.4941H150.73V27.7971H157.402V32.3433H162.015C162.015 32.3433 162.031 32.3433 162.041 32.3433C162.885 32.3433 163.57 31.6586 163.57 30.8142C163.57 30.8039 163.57 30.7988 163.57 30.7885V9.27773H163.575Z" fill="#231F20"/>
<path d="M185.024 27.1742C183.598 25.0581 182.882 24.0953 182.882 19.4307V16.9748H188.911V11.3783H170.5V16.9748H176.529V19.4307C176.529 24.2189 175.7 25.4082 174.042 27.8641C172.385 30.3199 170.315 32.436 167.828 34.2174L172.436 38.0377C173.754 37.1161 175.165 35.8701 176.668 34.2843C178.172 32.7037 179.186 31.1334 179.706 29.5683C180.319 30.979 181.292 32.3742 182.63 33.7592C183.964 35.139 185.292 36.2614 186.61 37.1212L190.662 32.9766C187.424 30.5465 185.879 28.4459 185.019 27.1742H185.024ZM198.308 47.4493V9.27773H196.423C196.423 9.27773 193.432 9.27773 191.393 9.27773C191.99 9.87496 192.356 11.1003 192.366 12.0168V21.2018H187.207V26.7983H192.366V49.0041H196.789C197.628 48.9938 198.302 48.3142 198.302 47.4698C198.302 47.4647 198.302 47.4544 198.302 47.4493H198.308ZM207.009 47.4441V9.27773H205.124C205.124 9.27773 202.133 9.27773 200.094 9.27773C200.691 9.87496 201.062 11.1055 201.072 12.0271V49.0041H205.48C206.324 49.0041 207.009 48.3194 207.009 47.4698C207.009 47.4595 207.009 47.4493 207.009 47.4441V47.4441Z" fill="#231F20"/>
<path d="M129.373 16.9748H142.353C142.353 22.942 132.087 27.792 127.026 28.657L130.388 32.7552C135.526 31.4475 140.118 29.0894 144.031 25.748C147.944 22.4014 149.674 17.8038 149.674 11.3783H129.373V16.98V16.9748Z" fill="#231F20"/>
<path d="M245 32.019L223.149 21.9587V2.64637L245 0V32.019ZM240.758 4.70065L226.965 6.35334V19.2505L240.758 25.4648V4.7058V4.70065Z" fill="#ED1C24"/>
</g>
<defs>
<clipPath>
<rect width="245" height="54.9301" fill="white"/>
</clipPath>
</defs>
</svg>
