<svg viewBox="0 0 200 30" xmlns="http://www.w3.org/2000/svg" role="img" aria-label="헤럴드경제"><title>헤럴드경제</title>
<g>
<path d="M152.867 15.9793C146.033 15.9793 140.473 18.6475 140.473 21.9264C140.473 25.2053 146.033 27.8715 152.867 27.8715C159.701 27.8715 165.263 25.2053 165.263 21.9264C165.263 18.6475 159.701 15.9793 152.867 15.9793ZM152.945 25.2396C149.447 25.2396 146.599 23.7483 146.599 21.9163C146.599 20.0844 149.447 18.5951 152.945 18.5951C156.444 18.5951 159.289 20.0844 159.289 21.9163C159.289 23.7483 156.444 25.2396 152.945 25.2396Z" fill="black"/>
<path d="M193.176 25.3847H193.18L193.184 1.29382L188.071 1.28979V9.64319C187.757 9.64319 183.543 9.63513 183.543 9.63513V11.6968C183.571 12.2087 184.035 12.6016 184.595 12.6097H188.071V27.5027L191.151 27.4987C192.269 27.4987 193.178 26.5515 193.178 25.3827" fill="black"/>
<path d="M200 25.4814V1.29382L194.883 1.29584V27.5028L197.976 27.4987C199.063 27.4987 199.949 26.6019 200 25.4814Z" fill="black"/>
<path d="M185.544 17.6782C184.446 16.0538 180.836 13.9277 179.142 13.0873C184.216 7.43644 184.788 3.73434 184.788 3.73434C184.827 3.64365 184.847 3.54894 184.847 3.44616C184.847 3.2547 184.778 3.04108 184.643 2.81134C184.43 2.4506 183.966 2.27527 183.225 2.27527H169.196L171.655 4.82059L178.205 4.82663C178.205 4.82663 177.013 11.8499 167.515 21.0538L169.174 21.8015C172.538 19.5061 175.288 17.0373 177.372 14.9535C179.593 16.5617 181.588 18.6213 184.676 22.8192C184.676 22.8192 186.639 19.3005 185.542 17.6782" fill="black"/>
<path d="M152.615 10.1793V12.2187C152.647 12.6984 153.124 13.0531 153.725 13.0591H160.003V16.6746L162.997 16.6786H162.991C164.172 16.6786 165.132 15.7294 165.132 14.5605L165.138 1.21724L160.001 1.22329V5.03018H154.414C154.729 4.46791 155.021 3.88751 155.273 3.27284C155.406 2.94636 155.412 2.6743 155.289 2.46471C155.138 2.20272 154.856 2.15637 154.825 2.15234H136.776L139.63 4.6634C139.63 4.6634 148.094 4.66541 148.646 4.66541C147.486 7.45458 142.891 12.1603 136.712 15.2659C136.702 15.2739 136.692 15.286 136.684 15.3001L138.306 16.1586C146.244 13.696 151.377 8.9197 152.385 7.92414H160.005V10.1752L152.615 10.1813V10.1793Z" fill="black"/>
<path d="M75.9512 17.7124C75.9512 18.1941 76.4329 18.7765 77.0254 18.7765C77.0254 18.7765 94.3287 18.7805 94.6895 18.7805C94.6895 18.8531 94.6895 19.9837 94.6895 20.286C94.3247 20.286 76.2576 20.286 76.2576 20.286V25.8986C76.2576 25.9469 76.2394 27.3758 77.7469 27.3758H100.223V24.4939L81.6303 24.4798V22.6801H98.1759C99.9494 22.6801 99.8244 20.9026 99.8264 20.8462V15.8846L75.9492 15.8805V17.7165L75.9512 17.7124Z" fill="black"/>
<path d="M104.234 25.0542C104.253 25.6184 104.688 26.0638 105.248 26.092H135.719L135.711 23.2343H104.236V25.0542H104.234Z" fill="black"/>
<path d="M107.471 2.10397L107.475 15.9954C107.495 17.0454 108.325 17.8958 109.329 17.8958C109.329 17.8999 132.559 17.8958 132.559 17.8958L132.565 14.9616H112.59V5.01204H132.196V2.09591L107.469 2.10599L107.471 2.10397Z" fill="black"/>
<path d="M94.8852 1.17693V6.95076C94.2746 6.95076 92.086 6.94874 90.6713 6.94874V2.24504L71.5078 2.24101L73.9947 5.10273L85.4819 5.09668V7.27522H72.4308V13.0289C72.4308 13.0793 72.4268 14.6109 74.1479 14.6109L91.7736 14.6169V11.727C91.7736 11.727 77.7834 11.7149 77.5739 11.7089C77.5739 11.6444 77.5739 10.016 77.5739 9.69761C77.9346 9.69761 93.7123 9.69761 94.8852 9.69761V14.6049H98.1339L98.1279 14.6028C99.1698 14.6028 100.014 13.6899 100.048 12.5513V1.17693H94.8873H94.8852Z" fill="black"/>
<path d="M67.4439 25.3363V1.19104H62.3049V27.3899H65.5314L65.5233 27.3859C66.5652 27.3859 67.4116 26.4749 67.4419 25.3363" fill="black"/>
<path d="M55.2595 1.19103L55.2555 10.5984H53.0629C52.95 10.276 52.817 9.93944 52.6578 9.59482C52.1378 8.46827 50.8864 7.13414 49.5744 6.37438H53.6392V3.53482H48.0468V1.1467H42.9421V3.53482H36.2734L38.722 6.37438H41.5575C39.1835 7.75082 37.5834 10.3022 37.5834 13.2324C37.5834 17.6157 41.1585 21.1727 45.568 21.1727C49.9775 21.1727 53.2946 17.8535 53.5264 13.6758H55.2555V27.3899H58.4941L58.4881 27.3859C59.5098 27.3859 60.3401 26.4528 60.3542 25.296V1.19103H55.2616H55.2595ZM45.5801 18.4561C43.8449 18.4561 42.4382 16.1848 42.4382 13.3836C42.4382 10.5823 43.8449 8.30906 45.5801 8.30906C47.3152 8.30906 48.7199 10.5823 48.7199 13.3836C48.7199 16.1848 47.3132 18.4561 45.5801 18.4561Z" fill="black"/>
<path d="M1.65859 0H0V29.0203H1.65859V0Z" fill="#1BA2DA"/>
<path d="M5.08046 0H3.42188V29.0203H5.08046V0Z" fill="#1BA2DA"/>
<path d="M25.6 0H23.9414V29.0203H25.6V0Z" fill="#1BA2DA"/>
<path d="M29.0219 0H27.3633V29.0203H29.0219V0Z" fill="#1BA2DA"/>
<path d="M20.5217 11.9709H8.49849V0H6.8399V13.6294H22.1803V0H20.5217V11.9709Z" fill="#1BA2DA"/>
<path d="M18.7622 10.2095V0H17.1036V8.5509H11.9203V0H10.2617V10.2095H18.7622Z" fill="#1BA2DA"/>
<path d="M6.8399 15.3908V29.0203H8.49849V17.0494H20.5217V29.0203H22.1803V15.3908H6.8399Z" fill="#1BA2DA"/>
<path d="M10.2617 18.8108V29.0203H11.9203V20.4694H17.1036V29.0203H18.7622V18.8108H10.2617Z" fill="#1BA2DA"/>
</g>
</svg>
