<svg xmlns="http://www.w3.org/2000/svg" width="200" height="48" role="img" viewBox="0 0 172.85 45.32" aria-label="인사이트"><title>인사이트</title><path d="M21.48,48.23C14.47,48.23,9,43.28,9,36.61S14.47,25,21.48,25,34,29.89,34,36.61,28.49,48.23,21.48,48.23ZM47.26,60.56v6.1H15.57V51.25h7.78v9.31Zm-25.78-19a4.61,4.61,0,0,0,4.94-4.94,4.59,4.59,0,0,0-4.94-4.95,4.59,4.59,0,0,0-4.95,4.95A4.61,4.61,0,0,0,21.48,41.55ZM46.2,54.37H38.42V22.3H46.2Z" transform="translate(-8.95 -22.16)"/><path d="M70.05,31.23c0,8.21,2.16,16.37,9.85,20.12l-4.66,6.14c-4.46-2.26-7.35-6.1-9.12-10.85C64.25,51.78,61,56,56.18,58.31L51.57,52c8.12-3.7,10.66-12.29,10.66-20.79V25.57h7.82ZM94.34,45.49h-6V67.33H80.52v-45H88.3V39.15h6Z" transform="translate(-8.95 -22.16)"/><path d="M122,41.51c0,10.08-5.13,16.32-12,16.32s-12-6.24-12-16.32,5.14-16.33,12-16.33S122,31.42,122,41.51Zm-16.66,0c0,6.33,1.83,9.26,4.61,9.26s4.61-2.93,4.61-9.26-1.82-9.27-4.61-9.27S105.33,35.17,105.33,41.51Zm29.14-19.35V67.48H126.7V22.16Z" transform="translate(-8.95 -22.16)"/><path d="M181.8,56.29v6.19H141V56.29Zm-4.18-5.38H145.51V25.28h31.83v6.1H153.43v3.69h22.8V41h-22.8v3.89h24.19Z" transform="translate(-8.95 -22.16)"/></svg>
