<svg version="1.1" xmlns="http://www.w3.org/2000/svg" width="178px" height="178px" viewBox="0 0 178 178"  preserveAspectRatio="xMinYMin meet" role="img" aria-labelledby="qrcode-title qrcode-description"><title id="qrcode-title">https://excelkospi.pages.dev/app</title><description id="qrcode-description">엑셀코스피 앱 다운로드 QR</description><rect width="100%" height="100%" fill="white" cx="0" cy="0"/><path d="M2,2l6,0 0,6 -6,0 0,-6z M8,2l6,0 0,6 -6,0 0,-6z M14,2l6,0 0,6 -6,0 0,-6z M20,2l6,0 0,6 -6,0 0,-6z M26,2l6,0 0,6 -6,0 0,-6z M32,2l6,0 0,6 -6,0 0,-6z M38,2l6,0 0,6 -6,0 0,-6z M50,2l6,0 0,6 -6,0 0,-6z M74,2l6,0 0,6 -6,0 0,-6z M80,2l6,0 0,6 -6,0 0,-6z M86,2l6,0 0,6 -6,0 0,-6z M92,2l6,0 0,6 -6,0 0,-6z M110,2l6,0 0,6 -6,0 0,-6z M116,2l6,0 0,6 -6,0 0,-6z M122,2l6,0 0,6 -6,0 0,-6z M134,2l6,0 0,6 -6,0 0,-6z M140,2l6,0 0,6 -6,0 0,-6z M146,2l6,0 0,6 -6,0 0,-6z M152,2l6,0 0,6 -6,0 0,-6z M158,2l6,0 0,6 -6,0 0,-6z M164,2l6,0 0,6 -6,0 0,-6z M170,2l6,0 0,6 -6,0 0,-6z M2,8l6,0 0,6 -6,0 0,-6z M38,8l6,0 0,6 -6,0 0,-6z M50,8l6,0 0,6 -6,0 0,-6z M56,8l6,0 0,6 -6,0 0,-6z M62,8l6,0 0,6 -6,0 0,-6z M68,8l6,0 0,6 -6,0 0,-6z M80,8l6,0 0,6 -6,0 0,-6z M98,8l6,0 0,6 -6,0 0,-6z M104,8l6,0 0,6 -6,0 0,-6z M110,8l6,0 0,6 -6,0 0,-6z M134,8l6,0 0,6 -6,0 0,-6z M170,8l6,0 0,6 -6,0 0,-6z M2,14l6,0 0,6 -6,0 0,-6z M14,14l6,0 0,6 -6,0 0,-6z M20,14l6,0 0,6 -6,0 0,-6z M26,14l6,0 0,6 -6,0 0,-6z M38,14l6,0 0,6 -6,0 0,-6z M56,14l6,0 0,6 -6,0 0,-6z M74,14l6,0 0,6 -6,0 0,-6z M98,14l6,0 0,6 -6,0 0,-6z M110,14l6,0 0,6 -6,0 0,-6z M122,14l6,0 0,6 -6,0 0,-6z M134,14l6,0 0,6 -6,0 0,-6z M146,14l6,0 0,6 -6,0 0,-6z M152,14l6,0 0,6 -6,0 0,-6z M158,14l6,0 0,6 -6,0 0,-6z M170,14l6,0 0,6 -6,0 0,-6z M2,20l6,0 0,6 -6,0 0,-6z M14,20l6,0 0,6 -6,0 0,-6z M20,20l6,0 0,6 -6,0 0,-6z M26,20l6,0 0,6 -6,0 0,-6z M38,20l6,0 0,6 -6,0 0,-6z M50,20l6,0 0,6 -6,0 0,-6z M62,20l6,0 0,6 -6,0 0,-6z M74,20l6,0 0,6 -6,0 0,-6z M86,20l6,0 0,6 -6,0 0,-6z M92,20l6,0 0,6 -6,0 0,-6z M104,20l6,0 0,6 -6,0 0,-6z M134,20l6,0 0,6 -6,0 0,-6z M146,20l6,0 0,6 -6,0 0,-6z M152,20l6,0 0,6 -6,0 0,-6z M158,20l6,0 0,6 -6,0 0,-6z M170,20l6,0 0,6 -6,0 0,-6z M2,26l6,0 0,6 -6,0 0,-6z M14,26l6,0 0,6 -6,0 0,-6z M20,26l6,0 0,6 -6,0 0,-6z M26,26l6,0 0,6 -6,0 0,-6z M38,26l6,0 0,6 -6,0 0,-6z M56,26l6,0 0,6 -6,0 0,-6z M74,26l6,0 0,6 -6,0 0,-6z M86,26l6,0 0,6 -6,0 0,-6z M98,26l6,0 0,6 -6,0 0,-6z M104,26l6,0 0,6 -6,0 0,-6z M110,26l6,0 0,6 -6,0 0,-6z M116,26l6,0 0,6 -6,0 0,-6z M134,26l6,0 0,6 -6,0 0,-6z M146,26l6,0 0,6 -6,0 0,-6z M152,26l6,0 0,6 -6,0 0,-6z M158,26l6,0 0,6 -6,0 0,-6z M170,26l6,0 0,6 -6,0 0,-6z M2,32l6,0 0,6 -6,0 0,-6z M38,32l6,0 0,6 -6,0 0,-6z M62,32l6,0 0,6 -6,0 0,-6z M74,32l6,0 0,6 -6,0 0,-6z M80,32l6,0 0,6 -6,0 0,-6z M92,32l6,0 0,6 -6,0 0,-6z M98,32l6,0 0,6 -6,0 0,-6z M104,32l6,0 0,6 -6,0 0,-6z M116,32l6,0 0,6 -6,0 0,-6z M122,32l6,0 0,6 -6,0 0,-6z M134,32l6,0 0,6 -6,0 0,-6z M170,32l6,0 0,6 -6,0 0,-6z M2,38l6,0 0,6 -6,0 0,-6z M8,38l6,0 0,6 -6,0 0,-6z M14,38l6,0 0,6 -6,0 0,-6z M20,38l6,0 0,6 -6,0 0,-6z M26,38l6,0 0,6 -6,0 0,-6z M32,38l6,0 0,6 -6,0 0,-6z M38,38l6,0 0,6 -6,0 0,-6z M50,38l6,0 0,6 -6,0 0,-6z M62,38l6,0 0,6 -6,0 0,-6z M74,38l6,0 0,6 -6,0 0,-6z M86,38l6,0 0,6 -6,0 0,-6z M98,38l6,0 0,6 -6,0 0,-6z M110,38l6,0 0,6 -6,0 0,-6z M122,38l6,0 0,6 -6,0 0,-6z M134,38l6,0 0,6 -6,0 0,-6z M140,38l6,0 0,6 -6,0 0,-6z M146,38l6,0 0,6 -6,0 0,-6z M152,38l6,0 0,6 -6,0 0,-6z M158,38l6,0 0,6 -6,0 0,-6z M164,38l6,0 0,6 -6,0 0,-6z M170,38l6,0 0,6 -6,0 0,-6z M50,44l6,0 0,6 -6,0 0,-6z M62,44l6,0 0,6 -6,0 0,-6z M68,44l6,0 0,6 -6,0 0,-6z M74,44l6,0 0,6 -6,0 0,-6z M92,44l6,0 0,6 -6,0 0,-6z M98,44l6,0 0,6 -6,0 0,-6z M104,44l6,0 0,6 -6,0 0,-6z M110,44l6,0 0,6 -6,0 0,-6z M122,44l6,0 0,6 -6,0 0,-6z M2,50l6,0 0,6 -6,0 0,-6z M14,50l6,0 0,6 -6,0 0,-6z M20,50l6,0 0,6 -6,0 0,-6z M32,50l6,0 0,6 -6,0 0,-6z M38,50l6,0 0,6 -6,0 0,-6z M44,50l6,0 0,6 -6,0 0,-6z M62,50l6,0 0,6 -6,0 0,-6z M68,50l6,0 0,6 -6,0 0,-6z M74,50l6,0 0,6 -6,0 0,-6z M80,50l6,0 0,6 -6,0 0,-6z M92,50l6,0 0,6 -6,0 0,-6z M104,50l6,0 0,6 -6,0 0,-6z M116,50l6,0 0,6 -6,0 0,-6z M134,50l6,0 0,6 -6,0 0,-6z M152,50l6,0 0,6 -6,0 0,-6z M164,50l6,0 0,6 -6,0 0,-6z M170,50l6,0 0,6 -6,0 0,-6z M2,56l6,0 0,6 -6,0 0,-6z M14,56l6,0 0,6 -6,0 0,-6z M32,56l6,0 0,6 -6,0 0,-6z M44,56l6,0 0,6 -6,0 0,-6z M56,56l6,0 0,6 -6,0 0,-6z M62,56l6,0 0,6 -6,0 0,-6z M74,56l6,0 0,6 -6,0 0,-6z M80,56l6,0 0,6 -6,0 0,-6z M86,56l6,0 0,6 -6,0 0,-6z M92,56l6,0 0,6 -6,0 0,-6z M104,56l6,0 0,6 -6,0 0,-6z M110,56l6,0 0,6 -6,0 0,-6z M116,56l6,0 0,6 -6,0 0,-6z M122,56l6,0 0,6 -6,0 0,-6z M128,56l6,0 0,6 -6,0 0,-6z M134,56l6,0 0,6 -6,0 0,-6z M140,56l6,0 0,6 -6,0 0,-6z M146,56l6,0 0,6 -6,0 0,-6z M170,56l6,0 0,6 -6,0 0,-6z M2,62l6,0 0,6 -6,0 0,-6z M14,62l6,0 0,6 -6,0 0,-6z M20,62l6,0 0,6 -6,0 0,-6z M32,62l6,0 0,6 -6,0 0,-6z M38,62l6,0 0,6 -6,0 0,-6z M56,62l6,0 0,6 -6,0 0,-6z M68,62l6,0 0,6 -6,0 0,-6z M80,62l6,0 0,6 -6,0 0,-6z M98,62l6,0 0,6 -6,0 0,-6z M110,62l6,0 0,6 -6,0 0,-6z M122,62l6,0 0,6 -6,0 0,-6z M128,62l6,0 0,6 -6,0 0,-6z M134,62l6,0 0,6 -6,0 0,-6z M158,62l6,0 0,6 -6,0 0,-6z M164,62l6,0 0,6 -6,0 0,-6z M20,68l6,0 0,6 -6,0 0,-6z M26,68l6,0 0,6 -6,0 0,-6z M44,68l6,0 0,6 -6,0 0,-6z M50,68l6,0 0,6 -6,0 0,-6z M62,68l6,0 0,6 -6,0 0,-6z M68,68l6,0 0,6 -6,0 0,-6z M98,68l6,0 0,6 -6,0 0,-6z M116,68l6,0 0,6 -6,0 0,-6z M134,68l6,0 0,6 -6,0 0,-6z M140,68l6,0 0,6 -6,0 0,-6z M170,68l6,0 0,6 -6,0 0,-6z M2,74l6,0 0,6 -6,0 0,-6z M8,74l6,0 0,6 -6,0 0,-6z M14,74l6,0 0,6 -6,0 0,-6z M20,74l6,0 0,6 -6,0 0,-6z M38,74l6,0 0,6 -6,0 0,-6z M44,74l6,0 0,6 -6,0 0,-6z M56,74l6,0 0,6 -6,0 0,-6z M68,74l6,0 0,6 -6,0 0,-6z M74,74l6,0 0,6 -6,0 0,-6z M86,74l6,0 0,6 -6,0 0,-6z M92,74l6,0 0,6 -6,0 0,-6z M104,74l6,0 0,6 -6,0 0,-6z M122,74l6,0 0,6 -6,0 0,-6z M152,74l6,0 0,6 -6,0 0,-6z M158,74l6,0 0,6 -6,0 0,-6z M8,80l6,0 0,6 -6,0 0,-6z M20,80l6,0 0,6 -6,0 0,-6z M26,80l6,0 0,6 -6,0 0,-6z M44,80l6,0 0,6 -6,0 0,-6z M68,80l6,0 0,6 -6,0 0,-6z M86,80l6,0 0,6 -6,0 0,-6z M98,80l6,0 0,6 -6,0 0,-6z M104,80l6,0 0,6 -6,0 0,-6z M116,80l6,0 0,6 -6,0 0,-6z M134,80l6,0 0,6 -6,0 0,-6z M158,80l6,0 0,6 -6,0 0,-6z M164,80l6,0 0,6 -6,0 0,-6z M170,80l6,0 0,6 -6,0 0,-6z M8,86l6,0 0,6 -6,0 0,-6z M14,86l6,0 0,6 -6,0 0,-6z M20,86l6,0 0,6 -6,0 0,-6z M38,86l6,0 0,6 -6,0 0,-6z M44,86l6,0 0,6 -6,0 0,-6z M50,86l6,0 0,6 -6,0 0,-6z M68,86l6,0 0,6 -6,0 0,-6z M80,86l6,0 0,6 -6,0 0,-6z M92,86l6,0 0,6 -6,0 0,-6z M98,86l6,0 0,6 -6,0 0,-6z M110,86l6,0 0,6 -6,0 0,-6z M116,86l6,0 0,6 -6,0 0,-6z M140,86l6,0 0,6 -6,0 0,-6z M146,86l6,0 0,6 -6,0 0,-6z M158,86l6,0 0,6 -6,0 0,-6z M164,86l6,0 0,6 -6,0 0,-6z M170,86l6,0 0,6 -6,0 0,-6z M14,92l6,0 0,6 -6,0 0,-6z M32,92l6,0 0,6 -6,0 0,-6z M44,92l6,0 0,6 -6,0 0,-6z M62,92l6,0 0,6 -6,0 0,-6z M68,92l6,0 0,6 -6,0 0,-6z M86,92l6,0 0,6 -6,0 0,-6z M98,92l6,0 0,6 -6,0 0,-6z M110,92l6,0 0,6 -6,0 0,-6z M116,92l6,0 0,6 -6,0 0,-6z M122,92l6,0 0,6 -6,0 0,-6z M134,92l6,0 0,6 -6,0 0,-6z M146,92l6,0 0,6 -6,0 0,-6z M164,92l6,0 0,6 -6,0 0,-6z M14,98l6,0 0,6 -6,0 0,-6z M32,98l6,0 0,6 -6,0 0,-6z M38,98l6,0 0,6 -6,0 0,-6z M50,98l6,0 0,6 -6,0 0,-6z M56,98l6,0 0,6 -6,0 0,-6z M62,98l6,0 0,6 -6,0 0,-6z M68,98l6,0 0,6 -6,0 0,-6z M74,98l6,0 0,6 -6,0 0,-6z M86,98l6,0 0,6 -6,0 0,-6z M92,98l6,0 0,6 -6,0 0,-6z M110,98l6,0 0,6 -6,0 0,-6z M116,98l6,0 0,6 -6,0 0,-6z M122,98l6,0 0,6 -6,0 0,-6z M128,98l6,0 0,6 -6,0 0,-6z M140,98l6,0 0,6 -6,0 0,-6z M146,98l6,0 0,6 -6,0 0,-6z M152,98l6,0 0,6 -6,0 0,-6z M164,98l6,0 0,6 -6,0 0,-6z M8,104l6,0 0,6 -6,0 0,-6z M14,104l6,0 0,6 -6,0 0,-6z M26,104l6,0 0,6 -6,0 0,-6z M32,104l6,0 0,6 -6,0 0,-6z M44,104l6,0 0,6 -6,0 0,-6z M62,104l6,0 0,6 -6,0 0,-6z M86,104l6,0 0,6 -6,0 0,-6z M98,104l6,0 0,6 -6,0 0,-6z M140,104l6,0 0,6 -6,0 0,-6z M152,104l6,0 0,6 -6,0 0,-6z M158,104l6,0 0,6 -6,0 0,-6z M164,104l6,0 0,6 -6,0 0,-6z M2,110l6,0 0,6 -6,0 0,-6z M20,110l6,0 0,6 -6,0 0,-6z M26,110l6,0 0,6 -6,0 0,-6z M38,110l6,0 0,6 -6,0 0,-6z M56,110l6,0 0,6 -6,0 0,-6z M68,110l6,0 0,6 -6,0 0,-6z M74,110l6,0 0,6 -6,0 0,-6z M80,110l6,0 0,6 -6,0 0,-6z M86,110l6,0 0,6 -6,0 0,-6z M92,110l6,0 0,6 -6,0 0,-6z M122,110l6,0 0,6 -6,0 0,-6z M134,110l6,0 0,6 -6,0 0,-6z M146,110l6,0 0,6 -6,0 0,-6z M158,110l6,0 0,6 -6,0 0,-6z M26,116l6,0 0,6 -6,0 0,-6z M32,116l6,0 0,6 -6,0 0,-6z M44,116l6,0 0,6 -6,0 0,-6z M56,116l6,0 0,6 -6,0 0,-6z M80,116l6,0 0,6 -6,0 0,-6z M86,116l6,0 0,6 -6,0 0,-6z M104,116l6,0 0,6 -6,0 0,-6z M110,116l6,0 0,6 -6,0 0,-6z M122,116l6,0 0,6 -6,0 0,-6z M128,116l6,0 0,6 -6,0 0,-6z M134,116l6,0 0,6 -6,0 0,-6z M140,116l6,0 0,6 -6,0 0,-6z M146,116l6,0 0,6 -6,0 0,-6z M158,116l6,0 0,6 -6,0 0,-6z M8,122l6,0 0,6 -6,0 0,-6z M14,122l6,0 0,6 -6,0 0,-6z M26,122l6,0 0,6 -6,0 0,-6z M32,122l6,0 0,6 -6,0 0,-6z M38,122l6,0 0,6 -6,0 0,-6z M50,122l6,0 0,6 -6,0 0,-6z M68,122l6,0 0,6 -6,0 0,-6z M74,122l6,0 0,6 -6,0 0,-6z M80,122l6,0 0,6 -6,0 0,-6z M86,122l6,0 0,6 -6,0 0,-6z M104,122l6,0 0,6 -6,0 0,-6z M110,122l6,0 0,6 -6,0 0,-6z M122,122l6,0 0,6 -6,0 0,-6z M128,122l6,0 0,6 -6,0 0,-6z M134,122l6,0 0,6 -6,0 0,-6z M140,122l6,0 0,6 -6,0 0,-6z M146,122l6,0 0,6 -6,0 0,-6z M152,122l6,0 0,6 -6,0 0,-6z M158,122l6,0 0,6 -6,0 0,-6z M50,128l6,0 0,6 -6,0 0,-6z M68,128l6,0 0,6 -6,0 0,-6z M98,128l6,0 0,6 -6,0 0,-6z M122,128l6,0 0,6 -6,0 0,-6z M146,128l6,0 0,6 -6,0 0,-6z M152,128l6,0 0,6 -6,0 0,-6z M158,128l6,0 0,6 -6,0 0,-6z M164,128l6,0 0,6 -6,0 0,-6z M170,128l6,0 0,6 -6,0 0,-6z M2,134l6,0 0,6 -6,0 0,-6z M8,134l6,0 0,6 -6,0 0,-6z M14,134l6,0 0,6 -6,0 0,-6z M20,134l6,0 0,6 -6,0 0,-6z M26,134l6,0 0,6 -6,0 0,-6z M32,134l6,0 0,6 -6,0 0,-6z M38,134l6,0 0,6 -6,0 0,-6z M50,134l6,0 0,6 -6,0 0,-6z M56,134l6,0 0,6 -6,0 0,-6z M68,134l6,0 0,6 -6,0 0,-6z M74,134l6,0 0,6 -6,0 0,-6z M86,134l6,0 0,6 -6,0 0,-6z M110,134l6,0 0,6 -6,0 0,-6z M116,134l6,0 0,6 -6,0 0,-6z M122,134l6,0 0,6 -6,0 0,-6z M134,134l6,0 0,6 -6,0 0,-6z M146,134l6,0 0,6 -6,0 0,-6z M152,134l6,0 0,6 -6,0 0,-6z M164,134l6,0 0,6 -6,0 0,-6z M2,140l6,0 0,6 -6,0 0,-6z M38,140l6,0 0,6 -6,0 0,-6z M50,140l6,0 0,6 -6,0 0,-6z M56,140l6,0 0,6 -6,0 0,-6z M68,140l6,0 0,6 -6,0 0,-6z M74,140l6,0 0,6 -6,0 0,-6z M80,140l6,0 0,6 -6,0 0,-6z M86,140l6,0 0,6 -6,0 0,-6z M98,140l6,0 0,6 -6,0 0,-6z M122,140l6,0 0,6 -6,0 0,-6z M146,140l6,0 0,6 -6,0 0,-6z M152,140l6,0 0,6 -6,0 0,-6z M170,140l6,0 0,6 -6,0 0,-6z M2,146l6,0 0,6 -6,0 0,-6z M14,146l6,0 0,6 -6,0 0,-6z M20,146l6,0 0,6 -6,0 0,-6z M26,146l6,0 0,6 -6,0 0,-6z M38,146l6,0 0,6 -6,0 0,-6z M56,146l6,0 0,6 -6,0 0,-6z M62,146l6,0 0,6 -6,0 0,-6z M74,146l6,0 0,6 -6,0 0,-6z M92,146l6,0 0,6 -6,0 0,-6z M98,146l6,0 0,6 -6,0 0,-6z M104,146l6,0 0,6 -6,0 0,-6z M110,146l6,0 0,6 -6,0 0,-6z M122,146l6,0 0,6 -6,0 0,-6z M128,146l6,0 0,6 -6,0 0,-6z M134,146l6,0 0,6 -6,0 0,-6z M140,146l6,0 0,6 -6,0 0,-6z M146,146l6,0 0,6 -6,0 0,-6z M158,146l6,0 0,6 -6,0 0,-6z M164,146l6,0 0,6 -6,0 0,-6z M2,152l6,0 0,6 -6,0 0,-6z M14,152l6,0 0,6 -6,0 0,-6z M20,152l6,0 0,6 -6,0 0,-6z M26,152l6,0 0,6 -6,0 0,-6z M38,152l6,0 0,6 -6,0 0,-6z M50,152l6,0 0,6 -6,0 0,-6z M56,152l6,0 0,6 -6,0 0,-6z M62,152l6,0 0,6 -6,0 0,-6z M68,152l6,0 0,6 -6,0 0,-6z M80,152l6,0 0,6 -6,0 0,-6z M92,152l6,0 0,6 -6,0 0,-6z M98,152l6,0 0,6 -6,0 0,-6z M122,152l6,0 0,6 -6,0 0,-6z M128,152l6,0 0,6 -6,0 0,-6z M146,152l6,0 0,6 -6,0 0,-6z M152,152l6,0 0,6 -6,0 0,-6z M170,152l6,0 0,6 -6,0 0,-6z M2,158l6,0 0,6 -6,0 0,-6z M14,158l6,0 0,6 -6,0 0,-6z M20,158l6,0 0,6 -6,0 0,-6z M26,158l6,0 0,6 -6,0 0,-6z M38,158l6,0 0,6 -6,0 0,-6z M50,158l6,0 0,6 -6,0 0,-6z M56,158l6,0 0,6 -6,0 0,-6z M74,158l6,0 0,6 -6,0 0,-6z M80,158l6,0 0,6 -6,0 0,-6z M104,158l6,0 0,6 -6,0 0,-6z M110,158l6,0 0,6 -6,0 0,-6z M116,158l6,0 0,6 -6,0 0,-6z M128,158l6,0 0,6 -6,0 0,-6z M140,158l6,0 0,6 -6,0 0,-6z M158,158l6,0 0,6 -6,0 0,-6z M170,158l6,0 0,6 -6,0 0,-6z M2,164l6,0 0,6 -6,0 0,-6z M38,164l6,0 0,6 -6,0 0,-6z M56,164l6,0 0,6 -6,0 0,-6z M86,164l6,0 0,6 -6,0 0,-6z M92,164l6,0 0,6 -6,0 0,-6z M116,164l6,0 0,6 -6,0 0,-6z M122,164l6,0 0,6 -6,0 0,-6z M128,164l6,0 0,6 -6,0 0,-6z M140,164l6,0 0,6 -6,0 0,-6z M146,164l6,0 0,6 -6,0 0,-6z M152,164l6,0 0,6 -6,0 0,-6z M164,164l6,0 0,6 -6,0 0,-6z M2,170l6,0 0,6 -6,0 0,-6z M8,170l6,0 0,6 -6,0 0,-6z M14,170l6,0 0,6 -6,0 0,-6z M20,170l6,0 0,6 -6,0 0,-6z M26,170l6,0 0,6 -6,0 0,-6z M32,170l6,0 0,6 -6,0 0,-6z M38,170l6,0 0,6 -6,0 0,-6z M50,170l6,0 0,6 -6,0 0,-6z M68,170l6,0 0,6 -6,0 0,-6z M86,170l6,0 0,6 -6,0 0,-6z M110,170l6,0 0,6 -6,0 0,-6z M116,170l6,0 0,6 -6,0 0,-6z M122,170l6,0 0,6 -6,0 0,-6z M128,170l6,0 0,6 -6,0 0,-6z M134,170l6,0 0,6 -6,0 0,-6z M164,170l6,0 0,6 -6,0 0,-6z " stroke="transparent" fill="black"/></svg>